<?xml version="1.0" encoding="UTF-8"?>
<!--
  - MIT License
  -
  - Copyright (c) 2025 Jonathan Glanz
  -
  - Permission is hereby granted, free of charge, to any person obtaining a copy
  - of this software and associated documentation files (the "Software"), to deal
  - in the Software without restriction, including without limitation the rights
  - to use, copy, modify, merge, publish, distribute, sublicense, and/or sell
  - copies of the Software, and to permit persons to whom the Software is
  - furnished to do so, subject to the following conditions:
  -
  - The above copyright notice and this permission notice shall be included in all
  - copies or substantial portions of the Software.
  -
  - THE SOFTWARE IS PROVIDED "AS IS", WITHOUT WARRANTY OF ANY KIND, EXPRESS OR
  - IMPLIED, INCLUDING BUT NOT LIMITED TO THE WARRANTIES OF MERCHANTABILITY,
  - FITNESS FOR A PARTICULAR PURPOSE AND NONINFRINGEMENT. IN NO EVENT SHALL THE
  - AUTHORS OR COPYRIGHT HOLDERS BE LIABLE FOR ANY CLAIM, DAMAGES OR OTHER
  - LIABILITY, WHETHER IN AN ACTION OF CONTRACT, TORT OR OTHERWISE, ARISING FROM,
  - OUT OF OR IN CONNECTION WITH THE SOFTWARE OR THE USE OR OTHER DEALINGS IN THE
  - SOFTWARE.
  -->

<svg xmlns="http://www.w3.org/2000/svg" xmlns:svg="http://www.w3.org/2000/svg" xmlns:sodipodi="http://sodipodi.sourceforge.net/DTD/sodipodi-0.dtd" xmlns:inkscape="http://www.inkscape.org/namespaces/inkscape" version="1.1" viewBox="0 0 108 108">
  <!-- Generator: Adobe Illustrator 29.3.1, SVG Export Plug-In . SVG Version: 2.1.0 Build 151)  -->
  <defs>
    <style>
      .st0 {
        fill: none;
      }

      .st1 {
        fill: #1a1a1a;
      }
    </style>
  </defs>
  <g id="Layer_2">
    <sodipodi:namedview id="namedview60" bordercolor="#000000" borderopacity="0.25" pagecolor="#ffffff" showgrid="false"/>
    <rect class="st0" width="108" height="108"/>
  </g>
  <g id="svg58">
    <g id="g312" inkscape:label="deskflow">
      <path id="path3393" class="st1" d="M67.9,86.9c-3.6-.3-6.7-1.5-14.5-5.5-5.8-3-8.2-4-10.6-4.6-1-.2-1.2-.3-3.3-.3-2,0-2.3,0-3,.2-3,.9-5.5,2.5-8.4,5.6-1.8,1.9-2.2,2.2-3.6,2.2s-1.9-.5-2.7-1.8c-.5-.8-.7-1.6-.7-2.8,0-1.7.4-2.7,2-4.4,2.2-2.6,5.3-5,8-6.4,2.8-1.4,6.4-2.2,9.4-1.9,4.3.4,7.3,1.5,15.6,5.7,6.7,3.4,9.3,4.4,11.6,4.7,4.7.5,8-1.1,11.9-5.8,1.3-1.6,2.2-2.4,2.6-2.6.4-.1,1.7-.1,2.2,0,.6.2,1.4,1.1,1.8,1.8.4.9.6,1.5.5,2.9,0,1.1,0,1.2-.4,1.9-.7,1.4-2.7,3.8-4.6,5.6-3.5,3.3-6.9,5-11.3,5.4-1.1.1-1.4.1-2.7,0h0Z" inkscape:label="wave 3"/>
      <path id="path1767" class="st1" d="M67.3,63.9c-3.3-.4-6.9-1.8-13.5-5.3-6.6-3.4-8.6-4.3-11.3-4.9-1.2-.3-1.7-.3-3.4-.2-1.7,0-2.2.1-3.2.5-2.8.9-5.4,2.8-7.9,5.6-1.7,1.9-2.9,2.4-4.4,1.9-.9-.3-2.1-1.9-2.4-3.3-.2-.9,0-2.4.2-3.2.7-1.9,4.5-5.7,7.8-7.8,4.7-3,9.8-3.8,15.2-2.4,3.1.8,5.3,1.7,11.8,5.1,4.7,2.4,7.7,3.7,9.6,4.3,1.5.5,4.2.6,5.7.4,2.9-.5,5.5-2.4,8.4-6,1.5-1.9,2.1-2.4,3.1-2.6,1.5-.4,3.3.9,3.8,2.8.2.7.2,1.1.2,1.9,0,1.5-.4,2.2-1.7,4-3.6,4.8-8,8-12.4,8.9-1.5.3-4.1.5-5.7.3h0Z" inkscape:label="wave 2"/>
      <path id="path970" class="st1" d="M66.7,40.7c-3.5-.5-6.5-1.7-12.5-4.8-8.6-4.5-10.6-5.2-14.2-5.4-1.5,0-2.3,0-3.2.2-3.1.6-6.2,2.6-9.1,5.8-1.3,1.4-1.7,1.7-2.6,2-1.6.4-3.1-.6-3.9-2.7-.3-.8-.3-1-.3-2,0-1.6.5-2.6,1.8-4.1,6.3-7.1,13-9.8,20.6-8.1,3.4.7,6.5,2,12.8,5.3,7.3,3.8,10,4.8,13.1,4.8,4.1,0,7.3-1.9,10.8-6.4,1.6-2,2-2.3,3.3-2.3.8,0,1,0,1.7.5,1.3.8,1.9,2.2,1.9,4.1s-.3,2.3-1.7,4.2c-5.5,7.2-11.6,10.2-18.6,9.2h0Z" inkscape:label="wave 1"/>
    </g>
  </g>
</svg>