<?xml version="1.0" encoding="UTF-8" standalone="no"?>
<svg
   height="20.18"
   viewBox="0 -960 807.20001 807.20001"
   width="20.18"
   fill="#e8eaed"
   version="1.1"
   id="svg58"
   sodipodi:docname="deskflow-icon-fit-mono-light.svg"
   inkscape:version="1.2.2 (b0a8486541, 2022-12-01)"
   inkscape:export-filename="deskflow-icon-mono-light-64.png"
   inkscape:export-xdpi="304.45987"
   inkscape:export-ydpi="304.45987"
   xmlns:inkscape="http://www.inkscape.org/namespaces/inkscape"
   xmlns:sodipodi="http://sodipodi.sourceforge.net/DTD/sodipodi-0.dtd"
   xmlns="http://www.w3.org/2000/svg"
   xmlns:svg="http://www.w3.org/2000/svg">
  <defs
     id="defs62" />
  <sodipodi:namedview
     id="namedview60"
     pagecolor="#ffffff"
     bordercolor="#000000"
     borderopacity="0.25"
     inkscape:showpageshadow="2"
     inkscape:pageopacity="0.0"
     inkscape:pagecheckerboard="true"
     inkscape:deskcolor="#d1d1d1"
     showgrid="false"
     inkscape:zoom="32.583333"
     inkscape:cx="5.2787724"
     inkscape:cy="10.987212"
     inkscape:window-width="1920"
     inkscape:window-height="1011"
     inkscape:window-x="0"
     inkscape:window-y="0"
     inkscape:window-maximized="1"
     inkscape:current-layer="svg58" />
  <path
     d="m 40.723125,-481.64882 q -5.19881,-8.6449 -8.31809,-18.01021 -3.11929,-9.36531 -3.11929,-20.89184 0,-11.52653 3.63917,-23.05307 3.63916,-11.52653 9.87774,-20.17143 45.74952,-59.07349 93.578565,-87.16942 47.82904,-28.09593 100.85689,-28.09593 38.47119,0 81.10142,15.84899 42.63025,15.84898 110.21475,54.75103 59.26643,33.13879 90.97916,46.10614 31.71274,12.96735 58.74655,12.96735 35.3519,0 66.02487,-21.61225 30.67298,-21.61225 61.86583,-67.71839 6.23857,-8.6449 14.55667,-13.68776 8.31809,-5.04286 16.63619,-5.04286 8.31809,0 15.07654,4.32245 6.75846,4.32245 12.99703,11.52654 6.23857,8.6449 9.35785,19.45102 3.11929,10.80613 3.11929,22.33267 0,11.52653 -3.11929,21.61225 -3.11928,10.08572 -8.31809,18.73062 -42.63024,63.39594 -89.41952,94.3735 -46.78928,30.97756 -98.77737,30.97756 -36.39167,0 -76.4225,-15.12858 -40.03083,-15.12857 -104.49606,-52.58981 -62.38571,-36.02042 -95.65809,-48.98777 -33.27238,-12.96735 -63.42547,-12.96735 -36.39166,0 -70.18392,20.89184 -33.79226,20.89184 -68.104395,64.11635 -6.23857,7.20408 -13.51691,11.52653 -7.27833,4.32245 -15.59643,4.32245 -8.31809,0 -16.1163,-4.32245 -7.79822,-4.32245 -14.03679,-14.40817 z m 0,280.95928 q -5.19881,-8.6449 -8.31809,-18.01021 -3.11929,-9.36531 -3.11929,-20.89184 0,-11.52654 3.63917,-23.05307 3.63916,-11.52653 9.87774,-20.17143 45.74952,-59.07349 93.058685,-87.16942 47.30916,-28.09593 100.33701,-28.09593 38.47118,0 82.14118,15.84898 43.67001,15.84899 110.21475,54.75104 59.26643,33.13879 90.45928,46.10614 31.19286,12.96735 58.22667,12.96735 35.3519,0 67.06463,-21.61225 31.71274,-21.61225 61.86583,-67.71839 6.23857,-8.6449 14.03679,-12.96735 7.79821,-4.32245 16.11631,-4.32245 8.31809,0 15.07654,3.60204 6.75845,3.60204 12.99702,10.80613 6.23858,8.6449 9.87774,20.17143 3.63917,11.52654 3.63917,23.05307 0,11.52654 -3.11929,20.89185 -3.11928,9.3653 -8.31809,18.01021 -42.63024,63.39594 -89.41952,94.3735 -46.78928,30.97756 -98.77737,30.97756 -36.39167,0 -76.4225,-15.12858 -40.03083,-15.12857 -105.53582,-52.58981 -62.38571,-36.02042 -95.65809,-48.98777 -33.27238,-12.96735 -62.38571,-12.96735 -36.39166,0 -71.22369,21.61225 -34.83202,21.61225 -68.104395,64.83675 -6.23857,7.20409 -13.5169,10.80613 -7.27833,3.60204 -14.55667,3.60204 -8.31809,0 -16.63618,-4.32245 -8.3181,-4.32245 -13.51691,-14.40817 z m 0,-561.91855 q -5.19881,-8.64491 -8.31809,-18.01021 -3.11929,-9.36531 -3.11929,-20.89185 0,-11.52653 3.63917,-23.05307 3.63916,-11.52653 9.87774,-20.17143 45.74952,-59.07349 93.058685,-87.16942 Q 183.1705,-960 236.19836,-960 q 38.47117,0 82.14117,15.84899 43.67001,15.84898 110.21475,54.75104 59.26643,33.13878 90.45928,46.10613 31.19286,12.96735 58.22667,12.96735 35.3519,0 67.06463,-21.61225 31.71274,-21.61225 61.86583,-67.71839 6.23857,-10.08572 14.03679,-14.40817 7.79821,-4.32245 16.11631,-4.32245 8.31809,0 15.59642,4.32245 7.27834,4.32245 13.51691,11.52654 6.23857,8.6449 9.35785,19.45103 3.11929,10.80612 3.11929,22.33266 0,11.52653 -3.11929,21.61225 -3.11928,10.08572 -8.31809,18.73062 -42.63024,63.39594 -88.89964,94.3735 -46.2694,30.97756 -99.29725,30.97756 -36.39167,0 -76.4225,-14.40817 -40.03083,-14.40817 -104.49606,-51.8694 -62.38571,-36.02042 -95.65809,-48.98778 -33.27238,-12.96735 -63.42547,-12.96735 -36.39166,0 -71.22369,20.89185 -34.83202,20.89184 -68.104395,64.11635 -6.23857,7.20408 -13.5169,10.80612 -7.27833,3.60204 -14.55667,3.60204 -8.31809,0 -16.63618,-4.32245 -8.3181,-4.32245 -13.51691,-14.40816 z"
     id="path56"
     style="stroke-width:1.22397" />
  <path
     style="font-variation-settings:'wght' 600;fill:#1a1a1a;stroke-width:0.0307389"
     d="M 13.948849,6.0883185 C 13.620982,6.0475817 13.119722,5.934388 12.782609,5.82496 11.983505,5.5655684 11.318286,5.239181 9.5754477,4.2513775 7.7944626,3.2419529 6.9149936,2.9157564 5.9741304,2.915643 4.8055649,2.9155022 3.7355177,3.5114723 2.7043858,4.7367493 2.3414774,5.1679876 2.2761231,5.2289623 2.0869565,5.3128027 1.782013,5.4479571 1.388828,5.3676562 1.1701017,5.1255524 1.0442273,4.9862244 0.85889822,4.6197352 0.79750825,4.3887468 0.73939142,4.170074 0.74039748,3.7816309 0.7997327,3.5298774 0.90292422,3.0920452 1.1916054,2.6788018 1.9335039,1.9068979 3.2401784,0.54737589 4.7145453,-0.09334364 6.2506856,0.03076897 7.1517027,0.10356675 7.9912976,0.36287918 9.1150896,0.91545211 9.5843602,1.1461943 9.7915133,1.2581679 10.941177,1.9025162 c 0.639435,0.3583823 1.738335,0.9085835 2.111479,1.0571831 0.532568,0.2120879 0.822207,0.2712019 1.341206,0.2737348 0.340417,0.00166 0.515234,-0.011558 0.670981,-0.050738 0.927924,-0.2334279 1.67753,-0.8387098 2.491846,-2.0120829 0.279922,-0.40334832 0.395021,-0.50959942 0.624907,-0.57687026 0.557778,-0.16322007 1.089043,0.29450247 1.219543,1.05072256 0.1311,0.7596948 -0.123629,1.3198179 -1.131079,2.4871298 -0.900222,1.0430686 -1.87686,1.6641751 -2.987066,1.8996645 -0.237891,0.05046 -1.092934,0.087028 -1.334145,0.057059 z"
     id="path3409"
     transform="matrix(40,0,0,40,0,-960)" />
  <path
     style="font-variation-settings:'wght' 600;fill:#1a1a1a;stroke-width:0.0307389"
     d="M 14.040921,13.116969 C 13.30964,13.028601 12.710846,12.850835 11.908181,12.483813 11.396566,12.249875 11.027038,12.0537 9.820972,11.375753 7.9178339,10.305972 7.1889116,10.004322 6.2847288,9.9123487 5.0422457,9.785963 3.899818,10.375149 2.7166112,11.75254 c -0.4781666,0.556642 -0.6110429,0.646437 -0.9565751,0.646437 -0.3426263,0 -0.6163456,-0.202215 -0.81008468,-0.598465 C 0.7442046,11.379702 0.69872467,10.959491 0.811291,10.519361 0.89508083,10.191746 0.98564571,10.030574 1.3095127,9.6327125 3.0168076,7.5353464 4.8834728,6.7223574 6.9974425,7.1554474 7.8855352,7.3373913 8.889652,7.7783369 10.588235,8.7322999 c 0.354476,0.1990816 0.975959,0.5303185 1.381075,0.736082 1.075473,0.5462481 1.548492,0.7170551 2.186681,0.7896101 0.682624,0.07761 1.381006,-0.114515 1.9992,-0.5499706 0.311464,-0.2193959 0.904374,-0.8381323 1.215653,-1.2686062 0.315617,-0.4364726 0.559345,-0.6955496 0.736573,-0.78296 0.08744,-0.043126 0.185711,-0.060547 0.341546,-0.060547 0.20409,0 0.230438,0.00803 0.392296,0.1195094 0.09543,0.06573 0.209796,0.1624053 0.254146,0.2148337 0.218529,0.258339 0.367125,0.7969974 0.332702,1.206042 -0.04285,0.5092046 -0.23342,0.8803577 -0.837959,1.6320317 -1.062212,1.320735 -2.103882,2.035928 -3.336951,2.291094 -0.236466,0.04893 -0.988242,0.08462 -1.212276,0.05755 z"
     id="path3411"
     transform="matrix(40,0,0,40,0,-960)" />
  <path
     style="font-variation-settings:'wght' 600;fill:#1a1a1a;stroke-width:0.0307389"
     d="M 13.948849,20.131854 C 12.921824,20.00576 11.911707,19.590579 9.9590794,18.491969 7.8194895,17.288169 7.1202087,17.000029 6.1534346,16.923846 5.4442392,16.86796 4.6108073,17.133332 3.9012786,17.640952 3.5764126,17.873371 2.9895042,18.441167 2.6494963,18.851968 2.2374455,19.349813 2.0752834,19.4466 1.6983989,19.419634 1.3153254,19.392225 1.0783294,19.170137 0.87123365,18.644501 0.69547398,18.1984 0.71862419,17.651503 0.93240191,17.19947 1.0480923,16.954842 1.4432455,16.466702 1.9332539,15.963098 2.9351031,14.933451 3.9040518,14.361736 5.0084766,14.148604 6.4660767,13.867316 7.9432951,14.2622 10.2011,15.536675 c 1.37691,0.777231 2.438337,1.318951 2.962964,1.512205 0.494991,0.182338 0.800216,0.23947 1.275834,0.238811 0.458872,-6.35e-4 0.692775,-0.04779 1.120656,-0.225916 0.649415,-0.270352 1.344885,-0.904476 1.960724,-1.787771 0.112719,-0.161673 0.26731,-0.348847 0.343536,-0.415943 0.322343,-0.283738 0.743171,-0.289662 1.078143,-0.01518 0.175615,0.143903 0.27535,0.304611 0.387965,0.625148 0.07879,0.224249 0.09183,0.306106 0.09294,0.58312 0.0014,0.358904 -0.0389,0.519396 -0.216722,0.862362 -0.265858,0.512773 -1.235685,1.648436 -1.805602,2.11435 -0.655686,0.536031 -1.382611,0.897085 -2.100811,1.043445 -0.365731,0.07453 -1.004834,0.103154 -1.351875,0.06055 z"
     id="path3413"
     transform="matrix(40,0,0,40,0,-960)" />
</svg>
